# xmcd
#
# Track frame offsets: 
#        150
#        8475
#        22665
#        35722
#        45617
#        58653
#        72302
#        89481
#        104570
#        117388
#        128636
#        138082
#        153772
#        165617
#        177300
#
# Disc length: 2470 seconds
#
# Revision: 0
# Processed by: cddbd v1.5.2PL0 Copyright (c) Steve Scherf et al.
# Submitted via: ExactAudioCopyFreeDBPlugin 1.0
#
DISCID=bd09a40f
DTITLE=Claire Tomlinson - Black, White and Blues 1
DYEAR=2001
DGENRE=
TTITLE0=Rolling Log Blues
TTITLE1=Fishing Blues
TTITLE2=Rollin' Stone
TTITLE3=Over to My House
TTITLE4=Worried Life Blues
TTITLE5=I'm a Woman
TTITLE6=Old Flames Can't Hold a Candle to You
TTITLE7=Chevrolet
TTITLE8=Diggin' My Potatoes
TTITLE9=Sweet Patunia
TTITLE10=Country Honk
TTITLE11=James Alley Blues
TTITLE12=Big Road Blues
TTITLE13=Deep Elem Blues
TTITLE14=Who's That Runnin' Out My Back Door
EXTD=
EXTT0=
EXTT1=
EXTT2=
EXTT3=
EXTT4=
EXTT5=
EXTT6=
EXTT7=
EXTT8=
EXTT9=
EXTT10=
EXTT11=
EXTT12=
EXTT13=
EXTT14=
PLAYORDER=
